<?xml version="1.0" standalone="no"?>
<svg version="1.2" xmlns="http://www.w3.org/2000/svg" xmlns:xlink="http://www.w3.org/1999/xlink" overflow="visible" preserveAspectRatio="none" viewBox="0 -8.494174091843728 54 54" width="47" height="47"><path d="M45.2,37H27.8c-0.2,0-0.4,0-0.5,0l-0.1,0c-0.1,0-0.3,0-0.4,0H11.3C5.1,37,0,31.9,0,25.7v-0.4C0,19.4,4.6,14.5,10.4,14  c1.8-8.2,9-14,17.5-14h0.1C38,0,46,8,46,17.9v0.1c0,0.3,0,0.6,0,1c4.5,0.4,8,4.1,8,8.7v0.5C54,33.1,50.1,37,45.2,37z M27.2,35  L27.2,35c0.3,0,0.4,0,0.5,0h17.5c3.7,0,6.8-3,6.8-6.8v-0.5c0-3.7-3-6.8-6.8-6.8h-1.5l0.1-1.1c0.1-0.7,0.1-1.3,0.1-1.8v-0.1  C44,9.1,36.9,2,28.1,2h-0.1c-7.8,0-14.3,5.5-15.7,13.2L12.1,16l-0.8,0C6.2,16,2,20.2,2,25.3v0.4c0,5.1,4.2,9.3,9.3,9.3h15.4  c0.1,0,0.2,0,0.3,0L27.2,35z" style="fill: rgb(0, 0, 0);"/><g/></svg>