<svg version="1.2" xmlns="http://www.w3.org/2000/svg" xmlns:xlink="http://www.w3.org/1999/xlink" overflow="visible" preserveAspectRatio="none" viewBox="0 0 51.70000076293945 55.099998474121094" xml:space="preserve" y="0px" x="0px" id="Layer_1_1570362372147" width="49" height="53"><g transform="translate(1, 1)"><style type="text/css">
	.st0_1570362372147{opacity:0.1;fill:#32B353;}
	.st1_1570362372147{fill:#35AF4F;}
</style><circle r="24.9" cy="28.2" cx="24.9" class="st0_1570362372147" vector-effect="non-scaling-stroke"/><path d="M31.2,43.3H11.7V28.1c0-4.7,3.8-8.4,8.4-8.4h9.6c4.7,0,8.4,3.8,8.4,8.4v14.3h-1.8V28.1c0-3.7-3-6.7-6.7-6.7  h-9.6c-3.7,0-6.7,3-6.7,6.7v13.5h17.8V43.3z" class="st1_1570362372147" vector-effect="non-scaling-stroke"/><polygon points="24.9,28.1 17.9,21.2 19.2,19.9 24.9,25.6 30.6,19.9 31.8,21.2" class="st1_1570362372147" vector-effect="non-scaling-stroke"/><path d="M24.9,17c-4.9,0-8.9-4-8.9-8.9s4-8.9,8.9-8.9s8.9,4,8.9,8.9S29.8,17,24.9,17z M24.9,0.9c-4,0-7.2,3.2-7.2,7.2  c0,4,3.2,7.2,7.2,7.2s7.2-3.2,7.2-7.2C32.1,4.1,28.9,0.9,24.9,0.9z" class="st1_1570362372147" vector-effect="non-scaling-stroke"/><polygon points="27.8,38 17.9,38 17.9,32.5 19.7,32.5 19.7,36.3 27.8,36.3" class="st1_1570362372147" vector-effect="non-scaling-stroke"/></g></svg>