<svg version="1.2" xmlns="http://www.w3.org/2000/svg" xmlns:xlink="http://www.w3.org/1999/xlink" overflow="visible" preserveAspectRatio="none" viewBox="0 0 502 502" xml:space="preserve" y="0px" x="0px" id="Layer_1_1566806088560" width="60" height="60"><g transform="translate(1, 1)"><style type="text/css">
	.st0_1566806088560{fill:#00B34B;}
</style><path d="M499.6,249.8c0-137.6-112-249.6-249.6-249.6C112.3,0.2,0.4,112.2,0.4,249.8s112,249.6,249.6,249.6  c8,0,15.9-0.4,23.7-1.1l0-136.1l41.8,41.8l33.5-33.5l-75.3-75.3v-29.2l41.8,41.8l33.5-33.5l-75.3-75.3v-29.1l41.8,41.8L349,178  l-99-99l-99,99l33.5,33.5l41.8-41.8v29.1l-75.3,75.3l33.5,33.5l41.8-41.8v29.2l-75.3,75.3l33.5,33.5l41.8-41.8v88.4  C125.9,438.8,47.8,353.3,47.8,249.8c0-111.5,90.7-202.2,202.2-202.2s202.2,90.7,202.2,202.2c0,88.6-57.2,164-136.7,191.3v0  l18.2,43.8C430.2,450.5,499.6,358.1,499.6,249.8" class="st0_1566806088560" vector-effect="non-scaling-stroke"/></g></svg>