<svg version="1.2" xmlns="http://www.w3.org/2000/svg" xmlns:xlink="http://www.w3.org/1999/xlink" overflow="visible" preserveAspectRatio="none" viewBox="0 0 816.5999755859375 181.89999389648438" xml:space="preserve" y="0px" x="0px" id="Layer_1_1568466474049" width="190" height="43"><g transform="translate(1, 1)"><style type="text/css">
	.st0_1568466474049{fill:#00B34B;}
</style><path d="M179.6,90.4c0-49.5-40.3-89.8-89.8-89.8C40.2,0.6-0.1,40.9-0.1,90.4s40.3,89.8,89.8,89.8c2.9,0,5.7-0.1,8.5-0.4  l0-49l15,15l12.1-12.1l-27.1-27.1V96.2l15,15l12.1-12.1L98.3,72.1V61.6l15,15l12.1-12.1L89.7,28.9L54.1,64.5l12.1,12.1l15-15v10.5  L54.1,99.2l12.1,12.1l15-15v10.5l-27.1,27.1l12.1,12.1l15-15v31.8c-36.1-4.2-64.2-35-64.2-72.3c0-40.1,32.6-72.8,72.8-72.8  s72.8,32.6,72.8,72.8c0,31.9-20.6,59-49.2,68.8v0l6.5,15.8C154.6,162.6,179.6,129.4,179.6,90.4" class="st0_1568466474049" vector-effect="non-scaling-stroke"/><g>
	<g>
		<path d="M202.9,49.5c0-19,14.1-33.6,33.6-33.6c11.8,0,22.3,6,27.9,15.3l-14.3,8.2c-2.5-4.6-7.6-7.4-13.6-7.4    c-10.4,0-17.2,7.2-17.2,17.5S226.1,67,236.5,67c6,0,11.1-2.8,13.6-7.5l14.3,8.3c-5.6,9.3-16,15.3-27.9,15.3    C217,83.1,202.9,68.5,202.9,49.5z" vector-effect="non-scaling-stroke"/>
		<path d="M314.1,54.2v27.5h-15.3V56.1c0-5-2.9-7.3-6.9-7.3c-4.7,0-7.6,2.9-7.6,8.4v24.5h-15.3V17.3h15.3v23    c2.6-3.7,7.1-5.9,12.8-5.9C306.7,34.4,314.1,41,314.1,54.2z" vector-effect="non-scaling-stroke"/>
		<path d="M369,35.7v46h-15.3v-4.2c-2.9,3.5-7.2,5.5-13.1,5.5C328.3,83,319,72.5,319,58.7s9.3-24.3,21.6-24.3c5.9,0,10.1,2,13.1,5.5    v-4.2H369z M353.7,58.7c0-6-4-10-9.7-10c-5.7,0-9.7,4.1-9.7,10s4,10,9.7,10C349.7,68.8,353.7,64.7,353.7,58.7z" vector-effect="non-scaling-stroke"/>
		<path d="M420.4,54.2v27.5h-15.3V56.1c0-5-2.9-7.3-6.9-7.3c-4.7,0-7.6,2.9-7.6,8.4v24.5h-15.3v-46h15.3v4.6    c2.6-3.7,7.1-5.9,12.8-5.9C412.9,34.4,420.4,41,420.4,54.2z" vector-effect="non-scaling-stroke"/>
		<path d="M475.5,35.7v44.2c0,15.4-12.2,21.6-24.2,21.6c-10,0-18.5-3.8-22.7-11.2l12.7-7.4c2,3.2,4.8,5.2,9.8,5.2    c5.2,0,9.3-2.6,9.3-8.3v-4.4c-2.9,3.6-7.2,5.7-12.9,5.7c-12.8,0-21.9-10.6-21.9-23.4s9.1-23.4,21.9-23.4c5.7,0,9.9,2.1,12.9,5.7    v-4.4H475.5z M460.4,57.8c0-5.5-4-9.6-9.8-9.6c-5.8,0-9.8,4.1-9.8,9.6s4,9.6,9.8,9.6C456.5,67.4,460.4,63.3,460.4,57.8z" vector-effect="non-scaling-stroke"/>
		<path d="M507.1,70c3.3,0,6.2-1.1,8.4-3.2l11.1,7.7c-4.6,5.8-11.6,8.6-19.8,8.6C490.8,83,481,72.4,481,58.8    c0-13.8,10.1-24.4,24.5-24.4c13.8,0,23.8,10.4,23.8,24.2c0,1.9-0.2,3.8-0.6,5.7h-31.8C498.6,68.8,502.7,70,507.1,70z M514.3,53.8    c-1.4-4.8-5-6.4-8.7-6.4c-4.4,0-7.7,2.2-9,6.4H514.3z" vector-effect="non-scaling-stroke"/>
		<path d="M224,117.7h7.9v14.6H224v31.4h-15.3v-31.4h-5.8v-14.6h5.8c0-12.9,7.6-20.7,23.2-19.8v14.2    C227.1,111.7,224,113.5,224,117.7z" vector-effect="non-scaling-stroke"/>
		<path d="M234.7,140.7c0-13.7,11-24.3,24.6-24.3c13.7,0,24.6,10.6,24.6,24.3c0,13.7-10.9,24.3-24.6,24.3    C245.8,165,234.7,154.4,234.7,140.7z M268.6,140.7c0-5.7-4-9.6-9.3-9.6c-5.2,0-9.2,3.9-9.2,9.6c0,5.7,4,9.6,9.2,9.6    C264.7,150.3,268.6,146.4,268.6,140.7z" vector-effect="non-scaling-stroke"/>
		<path d="M317.7,116.8v16.9c-6.1-0.9-13.8,1.8-13.8,11v19.1h-15.3v-46h15.3v8.6C305.7,120,311.5,116.8,317.7,116.8z" vector-effect="non-scaling-stroke"/>
		<path d="M361.3,132.3v13.4c0,4.3,3.4,4.6,9.6,4.2v13.8c-18.8,2.3-24.9-3.5-24.9-17.7v-13.7h-6.9v-14.6h6.9v-8.3l15.3-4.6v12.9h9.6    v14.6H361.3z" vector-effect="non-scaling-stroke"/>
		<path d="M421.7,136.2v27.5h-15.3v-25.6c0-5-2.9-7.3-6.9-7.3c-4.7,0-7.6,2.9-7.6,8.4v24.5h-15.3V99.3h15.3v23    c2.6-3.7,7.1-5.9,12.8-5.9C414.2,116.4,421.7,123,421.7,136.2z" vector-effect="non-scaling-stroke"/>
		<path d="M452.7,152c3.3,0,6.2-1.1,8.4-3.2l11.1,7.7c-4.6,5.8-11.6,8.6-19.8,8.6c-15.9,0-25.8-10.6-25.8-24.2    c0-13.8,10.1-24.4,24.5-24.4c13.8,0,23.8,10.4,23.8,24.2c0,1.9-0.2,3.8-0.6,5.7h-31.8C444.2,150.8,448.3,152,452.7,152z     M459.9,135.8c-1.4-4.8-5-6.4-8.7-6.4c-4.4,0-7.7,2.2-9,6.4H459.9z" vector-effect="non-scaling-stroke"/>
		<path d="M493,131.5c0-19,14.1-33.6,33.6-33.6c11.8,0,22.3,6,27.9,15.3l-14.3,8.2c-2.5-4.6-7.6-7.4-13.6-7.4    c-10.4,0-17.2,7.2-17.2,17.5s6.8,17.5,17.2,17.5c6,0,11.1-2.8,13.6-7.5l14.3,8.3c-5.6,9.3-16,15.3-27.9,15.3    C507,165.1,493,150.5,493,131.5z" vector-effect="non-scaling-stroke"/>
		<path d="M559.2,96.5h15.3v67.2h-15.3V96.5z" vector-effect="non-scaling-stroke"/>
		<path d="M579,105.1c0-4.8,4.1-8.7,8.8-8.7c4.8,0,8.8,4,8.8,8.7c0,4.8-4.1,8.8-8.8,8.8C583.1,113.9,579,109.9,579,105.1z     M580.2,117.7h15.3v46h-15.3V117.7z" vector-effect="non-scaling-stroke"/>
		<path d="M671.5,135.6v28.2h-15.4v-26.4c0-4-1.8-6.4-5.7-6.4c-4.3,0-6.4,3.1-6.4,7.7v25.1h-15.3v-26.4c0-4-1.9-6.4-5.8-6.4    c-4.2,0-6.4,3.1-6.4,7.7v25.1h-15.3v-46h15.3v4.3c2.5-3.3,6.5-5.6,12.4-5.6c5.4,0,9.3,2.1,11.8,5.9c2.9-3.5,7-5.9,13.4-5.9    C664.7,116.4,671.5,123.6,671.5,135.6z" vector-effect="non-scaling-stroke"/>
		<path d="M726.3,117.7v46H711v-4.2c-2.9,3.5-7.2,5.5-13.1,5.5c-12.3,0-21.6-10.5-21.6-24.3s9.3-24.3,21.6-24.3    c5.9,0,10.1,2,13.1,5.5v-4.2H726.3z M711,140.7c0-6-4-10-9.7-10c-5.7,0-9.7,4.1-9.7,10c0,6,4,10,9.7,10    C707.1,150.8,711,146.7,711,140.7z" vector-effect="non-scaling-stroke"/>
		<path d="M753.5,132.3v13.4c0,4.3,3.4,4.6,9.6,4.2v13.8c-18.8,2.3-24.9-3.5-24.9-17.7v-13.7h-6.9v-14.6h6.9v-8.3l15.3-4.6v12.9h9.6    v14.6H753.5z" vector-effect="non-scaling-stroke"/>
		<path d="M792.4,152c3.3,0,6.2-1.1,8.4-3.2l11.1,7.7c-4.6,5.8-11.6,8.6-19.8,8.6c-15.9,0-25.8-10.6-25.8-24.2    c0-13.8,10.1-24.4,24.5-24.4c13.8,0,23.8,10.4,23.8,24.2c0,1.9-0.2,3.8-0.6,5.7H782C783.9,150.8,787.9,152,792.4,152z     M799.5,135.8c-1.4-4.8-5-6.4-8.7-6.4c-4.4,0-7.7,2.2-9,6.4H799.5z" vector-effect="non-scaling-stroke"/>
	</g>
</g></g></svg>