<?xml version="1.0" standalone="no"?>
<svg version="1.2" xmlns="http://www.w3.org/2000/svg" xmlns:xlink="http://www.w3.org/1999/xlink" overflow="visible" preserveAspectRatio="none" viewBox="0 -2.000919963201472 50 50" width="27" height="27"><g>
	<g>
		<path d="M50,0L0,18.6l16.1,12v7.9c0,0.2,0.1,0.4,0.2,0.5c0,0.1,0,0.1,0.1,0.2c0.2,0.3,0.5,0.5,0.9,0.5c0.2,0,0.4,0,0.5-0.1    l5.7-3.5L36.6,46L50,0z M44.5,4.2l-26.9,25l-13.4-10L44.5,4.2z M18.1,37v-4.8l3.5,2.7L18.1,37z M19.2,30.4L46.4,5.2L35.5,42.6    L19.2,30.4z" style="fill: rgb(0, 0, 0);"/>
	</g>
</g><g/></svg>