<svg version="1.2" xmlns="http://www.w3.org/2000/svg" xmlns:xlink="http://www.w3.org/1999/xlink" overflow="visible" preserveAspectRatio="none" viewBox="0 0 51.79999923706055 51.79999923706055" xml:space="preserve" y="0px" x="0px" id="Layer_1_1570362372275" width="49" height="49"><g transform="translate(1, 1)"><style type="text/css">
	.st0_1570362372275{opacity:0.1;fill:#3E56A5;}
	.st1_1570362372275{fill:#0E31F9;}
</style><circle r="24.9" cy="24.9" cx="24.9" class="st0_1570362372275" vector-effect="non-scaling-stroke"/><g>
	<path d="M15.8,37.6c0.9,0,1.5,0.7,1.5,1.5s-0.7,1.5-1.5,1.5s-1.5-0.7-1.5-1.5S14.9,37.6,15.8,37.6 M15.8,35.8   c-1.8,0-3.3,1.5-3.3,3.3s1.5,3.3,3.3,3.3s3.3-1.5,3.3-3.3S17.6,35.8,15.8,35.8L15.8,35.8z" class="st1_1570362372275" vector-effect="non-scaling-stroke"/>
	<path d="M32.2,37.6c0.9,0,1.5,0.7,1.5,1.5s-0.7,1.5-1.5,1.5c-0.9,0-1.5-0.7-1.5-1.5S31.4,37.6,32.2,37.6 M32.2,35.8   c-1.8,0-3.3,1.5-3.3,3.3s1.5,3.3,3.3,3.3c1.8,0,3.3-1.5,3.3-3.3S34.1,35.8,32.2,35.8L32.2,35.8z" class="st1_1570362372275" vector-effect="non-scaling-stroke"/>
	<path d="M10.8,30L7.4,7.7C7.3,7.1,7,6.5,6.4,6.2C5.9,5.8,5.2,5.6,4.5,5.7C3.2,5.9,2.2,7.2,2.4,8.5L0.7,8.7   C0.3,6.5,1.9,4.4,4.3,4c1.1-0.2,2.2,0.1,3.2,0.7C8.4,5.4,9,6.3,9.1,7.4l3.4,22.3L10.8,30z" class="st1_1570362372275" vector-effect="non-scaling-stroke"/>
	<path d="M36.8,36.7h-24c-2.1,0-3.8-1.7-3.8-3.8s1.7-3.8,3.8-3.8h20c2,0,3.7-1.5,4.1-3.5l1.7-10.9   c0.1-0.5-0.1-1.1-0.4-1.5c-0.4-0.4-0.9-0.6-1.4-0.6H13.5v-1.8h23.2c1,0,2,0.5,2.7,1.3c0.7,0.8,1,1.8,0.8,2.9l-1.7,10.9   c-0.4,2.9-2.9,5-5.8,5h-20c-1.1,0-2.1,0.9-2.1,2.1c0,1.1,0.9,2.1,2.1,2.1h24V36.7z" class="st1_1570362372275" vector-effect="non-scaling-stroke"/>
</g></g></svg>