<?xml version="1.0" standalone="no"?>
<svg version="1.2" xmlns="http://www.w3.org/2000/svg" xmlns:xlink="http://www.w3.org/1999/xlink" overflow="visible" preserveAspectRatio="none" viewBox="0 0 53 53" width="47" height="47"><g>
	<g>
		<path d="M39.6,50.7c-0.4,0.4-1,0.4-1.4,0L2.3,14.8c-0.4-0.4-0.4-1,0-1.4l9.2-9.2L10,2.8L0.9,12C0.3,12.5,0,13.3,0,14.1    c0,0.8,0.3,1.5,0.9,2.1l35.9,35.9c0.6,0.6,1.3,0.9,2.1,0.9s1.5-0.3,2.1-0.9l9.2-9.2l-1.4-1.4L39.6,50.7z M6.5,13.4l1.4,1.4l7-7    l-1.4-1.4L6.5,13.4z M12.8,14.1l1.4,1.4l4.2-4.2l-1.4-1.4L12.8,14.1z M13.5,20.4l1.4,1.4l7-7l-1.4-1.4L13.5,20.4z M19.9,21.1    l1.4,1.4l4.2-4.2l-1.4-1.4L19.9,21.1z M20.6,27.5l1.4,1.4l7-7l-1.4-1.4L20.6,27.5z M26.9,28.2l1.4,1.4l4.2-4.2l-1.4-1.4L26.9,28.2    z M27.6,34.5l1.4,1.4l7-7l-1.4-1.4L27.6,34.5z M34,35.2l1.4,1.4l4.2-4.2L38.2,31L34,35.2z M34.7,41.5l1.4,1.4l7-7l-1.4-1.4    L34.7,41.5z M46.6,39.4L45.2,38L41,42.2l1.4,1.4L46.6,39.4z M12.8,0l-1.4,1.4l40.1,40.1l1.4-1.4L12.8,0z" style="fill: rgb(0, 0, 0);"/>
	</g>
</g><g/></svg>