<?xml version="1.0" standalone="no"?>
<svg version="1.2" xmlns="http://www.w3.org/2000/svg" xmlns:xlink="http://www.w3.org/1999/xlink" overflow="visible" preserveAspectRatio="none" viewBox="-2.9959999999999987 0 56 56" width="27" height="27"><g>
	<g>
		<path d="M42,16V0H27v16h-8v40h31V16H42z M29,2h11v14H29V2z M48,54H21V18h27V54z M34.5,4C32,4,30,6,30,8.5s2,4.5,4.5,4.5    S39,11,39,8.5S37,4,34.5,4z M34.5,11C33.1,11,32,9.9,32,8.5C32,7.1,33.1,6,34.5,6S37,7.1,37,8.5C37,9.9,35.9,11,34.5,11z M19,2H4    v2h15V2z M19,6H0v2h19V6z M19,10H4v2h15V10z M34.5,45c5.2,0,9.5-4.3,9.5-9.5c0-5.2-4.3-9.5-9.5-9.5S25,30.3,25,35.5    C25,40.7,29.3,45,34.5,45z M34.5,28c4.1,0,7.5,3.4,7.5,7.5c0,4.1-3.4,7.5-7.5,7.5S27,39.6,27,35.5C27,31.4,30.4,28,34.5,28z" style="fill: rgb(0, 0, 0);"/>
	</g>
</g><g/></svg>