<?xml version="1.0" standalone="no"?>
<svg version="1.2" xmlns="http://www.w3.org/2000/svg" xmlns:xlink="http://www.w3.org/1999/xlink" overflow="visible" preserveAspectRatio="none" viewBox="0 0 1010 1010" xml:space="preserve" y="0px" x="0px" id="Layer_1_1566744688519" width="25" height="25"><g transform="translate(1, 1)"><path d="M504,0c278,0,504,226,504,504s-226,504-504,504c-181,0-348-98-437-254l62-36c77,134,220,218,375,218c238,0,432-194,432-432  S742,72,504,72c-154,0-297,83-374,216h230v72H0V0h72v245C163,93,327,0,504,0z" vector-effect="non-scaling-stroke" style="fill: rgb(255, 255, 255);"/></g></svg>